<?xml version="1.0" encoding="UTF-8" standalone="no"?>
<svg width="154px" height="154px" viewBox="0 0 154 154" version="1.1" xmlns="http://www.w3.org/2000/svg" xmlns:xlink="http://www.w3.org/1999/xlink" xmlns:sketch="http://www.bohemiancoding.com/sketch/ns">
    <!-- Generator: Sketch 3.5.2 (25235) - http://www.bohemiancoding.com/sketch -->
    <title>logo</title>
    <desc>Created with Sketch.</desc>
    <defs></defs>
    <g id="Page-1" stroke="none" stroke-width="1" fill="none" fill-rule="evenodd" sketch:type="MSPage">
        <g id="logo" sketch:type="MSLayerGroup" transform="translate(2.000000, 2.000000)">
            <g id="Page-1" sketch:type="MSShapeGroup">
                <g id="Group">
                    <circle id="Oval-10" stroke="#F5F5F5" stroke-width="4" cx="75" cy="75" r="75"></circle>
                    <g id="noun_69484_cc" transform="translate(74.666667, 75.336918) rotate(180.000000) translate(-74.666667, -75.336918) translate(32.666667, 26.336918)" fill="#F5F5F5">
                        <path d="M41.5618089,70.6550751 L31.1713567,70.6550751 C30.0242507,70.6550751 29.0932662,69.7240906 29.0932662,68.5769847 L29.0932662,39.4837184 C29.0932662,38.3366125 30.0242507,37.405628 31.1713567,37.405628 L41.5618089,37.405628 C50.7303439,37.405628 58.1865324,44.8618165 58.1865324,54.0303516 C58.1865324,63.1988866 50.7303439,70.6550751 41.5618089,70.6550751 L41.5618089,70.6550751 L41.5618089,70.6550751 Z M33.2494471,66.4988942 L41.5618089,66.4988942 C48.4361321,66.4988942 54.0303516,60.9046748 54.0303516,54.0303516 C54.0303516,47.1560284 48.4361321,41.5618089 41.5618089,41.5618089 L33.2494471,41.5618089 L33.2494471,66.4988942 L33.2494471,66.4988942 L33.2494471,66.4988942 Z" id="Shape"></path>
                        <path d="M31.1713567,66.4988942 L18.702814,66.4988942 C17.5557081,66.4988942 16.6247236,65.5679097 16.6247236,64.4208038 L16.6247236,43.6398993 C16.6247236,42.4927934 17.5557081,41.5618089 18.702814,41.5618089 L31.1713567,41.5618089 C32.3184626,41.5618089 33.2494471,42.4927934 33.2494471,43.6398993 L33.2494471,64.4208038 C33.2494471,65.5679097 32.3184626,66.4988942 31.1713567,66.4988942 L31.1713567,66.4988942 L31.1713567,66.4988942 Z M20.7809044,62.3427133 L29.0932662,62.3427133 L29.0932662,45.7179898 L20.7809044,45.7179898 L20.7809044,62.3427133 L20.7809044,62.3427133 L20.7809044,62.3427133 Z" id="Shape"></path>
                        <path d="M18.702814,87.2797987 L2.07809044,87.2797987 C0.930984519,87.2797987 0,86.3488142 0,85.2017082 L0,56.108442 C0,46.8609395 6.81613666,41.5618089 18.702814,41.5618089 C19.8499199,41.5618089 20.7809044,42.4927934 20.7809044,43.6398993 L20.7809044,85.2017082 C20.7809044,86.3488142 19.8499199,87.2797987 18.702814,87.2797987 L18.702814,87.2797987 L18.702814,87.2797987 Z M4.15618089,83.1236178 L16.6247236,83.1236178 L16.6247236,45.7803325 C10.52345,46.1710135 4.15618089,48.4153512 4.15618089,56.108442 L4.15618089,83.1236178 L4.15618089,83.1236178 L4.15618089,83.1236178 Z" id="Shape"></path>
                        <path d="M10.3904522,97.6702509 C9.2433463,97.6702509 8.31236178,96.7392664 8.31236178,95.5921605 L8.31236178,87.2797987 C8.31236178,86.1326927 9.2433463,85.2017082 10.3904522,85.2017082 C11.5375581,85.2017082 12.4685427,86.1326927 12.4685427,87.2797987 L12.4685427,95.5921605 C12.4685427,96.7392664 11.5375581,97.6702509 10.3904522,97.6702509 L10.3904522,97.6702509 L10.3904522,97.6702509 Z" id="Shape"></path>
                        <path d="M51.9522611,33.2494471 L41.5618089,33.2494471 C32.3932739,33.2494471 24.9370853,25.7932586 24.9370853,16.6247236 C24.9370853,7.45618852 32.3932739,3.97903932e-13 41.5618089,3.97903932e-13 L51.9522611,3.97903932e-13 C53.0952109,3.97903932e-13 54.0303516,0.930984519 54.0303516,2.07809044 L54.0303516,31.1713567 C54.0303516,32.3184626 53.0952109,33.2494471 51.9522611,33.2494471 L51.9522611,33.2494471 L51.9522611,33.2494471 Z M41.5618089,4.15618089 C34.6874857,4.15618089 29.0932662,9.75040037 29.0932662,16.6247236 C29.0932662,23.4990467 34.6874857,29.0932662 41.5618089,29.0932662 L49.8741707,29.0932662 L49.8741707,4.15618089 L41.5618089,4.15618089 L41.5618089,4.15618089 L41.5618089,4.15618089 Z" id="Shape"></path>
                        <path d="M64.4208038,29.0932662 L51.9522611,29.0932662 C50.8093114,29.0932662 49.8741707,28.1622817 49.8741707,27.0151758 L49.8741707,6.23427133 C49.8741707,5.08716541 50.8093114,4.15618089 51.9522611,4.15618089 L64.4208038,4.15618089 C65.5637535,4.15618089 66.4988942,5.08716541 66.4988942,6.23427133 L66.4988942,27.0151758 C66.4988942,28.1622817 65.5637535,29.0932662 64.4208038,29.0932662 L64.4208038,29.0932662 L64.4208038,29.0932662 Z M54.0303516,24.9370853 L62.3427133,24.9370853 L62.3427133,8.31236178 L54.0303516,8.31236178 L54.0303516,24.9370853 L54.0303516,24.9370853 L54.0303516,24.9370853 Z" id="Shape"></path>
                        <path d="M81.0455273,49.8741707 L64.4208038,49.8741707 C63.277854,49.8741707 62.3427133,48.9431862 62.3427133,47.7960802 L62.3427133,6.23427133 C62.3427133,5.08716541 63.277854,4.15618089 64.4208038,4.15618089 C76.3033249,4.15618089 83.1236178,9.45531152 83.1236178,18.702814 L83.1236178,47.7960802 C83.1236178,48.9431862 82.1884771,49.8741707 81.0455273,49.8741707 L81.0455273,49.8741707 L81.0455273,49.8741707 Z M66.4988942,45.7179898 L78.9674369,45.7179898 L78.9674369,18.702814 C78.9674369,10.9972546 72.6001678,8.75291695 66.4988942,8.37470449 L66.4988942,45.7179898 L66.4988942,45.7179898 L66.4988942,45.7179898 Z" id="Shape"></path>
                        <path d="M72.7331656,97.6702509 C71.5902158,97.6702509 70.6550751,96.7392664 70.6550751,95.5921605 L70.6550751,49.8741707 C70.6550751,48.7270647 71.5902158,47.7960802 72.7331656,47.7960802 C73.8761153,47.7960802 74.811256,48.7270647 74.811256,49.8741707 L74.811256,95.5921605 C74.811256,96.7392664 73.8761153,97.6702509 72.7331656,97.6702509 L72.7331656,97.6702509 L72.7331656,97.6702509 Z" id="Shape"></path>
                    </g>
                </g>
            </g>
        </g>
    </g>
</svg>